<?xml version="1.0" encoding="utf-8"?>
<!-- Generator: Adobe Illustrator 12.0.1, SVG Export Plug-In . SVG Version: 6.00 Build 51448)  -->
<!DOCTYPE svg PUBLIC "-//W3C//DTD SVG 1.1//EN" "http://www.w3.org/Graphics/SVG/1.1/DTD/svg11.dtd" [
	<!ENTITY ns_svg "http://www.w3.org/2000/svg">
	<!ENTITY ns_xlink "http://www.w3.org/1999/xlink">
]>
<svg  version="1.1" id="Layer_1" xmlns="&ns_svg;" xmlns:xlink="&ns_xlink;" width="396" height="468" viewBox="0 0 396 468"
	 overflow="visible" enable-background="new 0 0 396 468" xml:space="preserve">
<g>
	<g>
		<defs>
			<rect id="XMLID_1_" width="396" height="468"/>
		</defs>
		<clipPath id="XMLID_3_">
			<use xlink:href="#XMLID_1_" />
		</clipPath>
		<rect clip-path="url(#XMLID_3_)" fill-rule="evenodd" clip-rule="evenodd" fill="#FFFFFF" width="396" height="468"/>
		<path clip-path="url(#XMLID_3_)" fill-rule="evenodd" clip-rule="evenodd" fill="#DADBDD" d="M0,0h396v312H0V0z M0,0"/>
	</g>
	<rect y="312" fill-rule="evenodd" clip-rule="evenodd" fill="#74B7A9" width="396" height="156"/>
	<g>
		<path fill="#414142" d="M25.77,63.416V38.635h19.958c1.823,0,3.15,0.377,3.982,1.129c0.832,0.754,1.248,1.979,1.248,3.676v2.884
			c0,2.467-1.375,3.876-4.125,4.229c2.854,0.353,4.281,1.968,4.281,4.849v3.168c0,3.232-2.288,4.848-6.864,4.848H25.77z
			 M46.739,46.611v-2.5c0-0.865-0.2-1.443-0.6-1.731s-1.048-0.433-1.943-0.433h-14.3v6.875h14.3
			C45.891,48.822,46.739,48.086,46.739,46.611z M46.926,57.082v-2.064c0-1.152-0.2-1.937-0.6-2.353
			c-0.4-0.416-1.111-0.624-2.135-0.624H29.895v7.969h14.297c1.023,0,1.735-0.208,2.135-0.624
			C46.726,58.97,46.926,58.201,46.926,57.082z"/>
		<path fill="#414142" d="M59.971,63.416l11.76-20.344h3.504l12.048,20.344h-4.176l-2.64-4.75H66.403l-2.592,4.75H59.971z
			 M68.035,55.729h10.8l-5.424-9.688L68.035,55.729z"/>
		<path fill="#414142" d="M99.157,47.15c0.188,1.184,0.281,2.399,0.281,3.646v12.619h-3.562V43.072h2.929l14.934,13.291
			c0.928,0.832,1.745,1.759,2.449,2.782c-0.229-1.216-0.344-2.479-0.344-3.79V43.072h3.562v20.344h-2.639l-15.211-13.482
			C100.532,49.037,99.732,48.11,99.157,47.15z"/>
		<path fill="#414142" d="M131.299,63.416V43.072h3.844V51.8l12.861-8.728h5.327l-15.024,9.836l16.704,10.508h-6.287l-13.582-9.12
			v9.12H131.299z"/>
	</g>
	<g>
		<path fill="#414142" d="M210.053,42.01h-19.407v17.938h19.407v-7.25H200.02v-3.156h14.158v8.018c0,2.272-0.408,3.816-1.225,4.633
			s-2.346,1.225-4.586,1.225h-16.037c-2.241,0-3.769-0.408-4.585-1.225s-1.224-2.361-1.224-4.635V44.494
			c0-2.273,0.408-3.818,1.224-4.635s2.345-1.225,4.585-1.225h16.037c2.177,0,3.689,0.395,4.537,1.182
			c0.849,0.787,1.273,2.254,1.273,4.401v0.624l-4.125,0.816V42.01z"/>
		<path fill="#414142" d="M226.357,47.918c0-1.855,0.352-3.127,1.057-3.814c0.704-0.688,2.018-1.031,3.938-1.031h14.697
			c1.921,0,3.233,0.344,3.938,1.031c0.704,0.688,1.057,1.959,1.057,3.814v10.7c0,1.855-0.353,3.118-1.057,3.79
			c-0.705,0.672-2.018,1.008-3.938,1.008h-14.697c-1.953,0-3.274-0.328-3.962-0.983c-0.689-0.655-1.033-1.927-1.033-3.814V47.918z
			 M230.201,60.354h17v-14.25h-17V60.354z"/>
		<path fill="#414142" d="M272.254,46.104v17.312h-3.844V46.104h-9.594v-3.031h23.088v3.031H272.254z"/>
		<path fill="#414142" d="M290.137,63.416V43.104h3.844v8.188h16.219v-8.188h3.844v20.312h-3.844v-9.062H293.98v9.062H290.137z"/>
		<path fill="#414142" d="M329.694,63.416h-3.844V43.104h3.844V63.416z"/>
	</g>
	<g>
		<path fill="#414142" d="M359.176,46.104h-14.219v14.25h14.219v-4.848l3.844,0.719v2.4c0,1.854-0.353,3.116-1.057,3.786
			c-0.705,0.67-2.018,1.005-3.939,1.005h-11.962c-1.954,0-3.267-0.328-3.939-0.983s-1.009-1.927-1.009-3.814v-10.7
			c0-1.887,0.344-3.166,1.033-3.838c0.688-0.672,1.993-1.008,3.915-1.008h11.962c1.922,0,3.234,0.337,3.939,1.011
			c0.704,0.674,1.057,1.955,1.057,3.845v1.92l-3.844,0.624V46.104z"/>
	</g>
	<g>
		<path d="M25.094,356.227l9.312-16.125h2.774l9.54,16.125h-3.307l-2.09-3.75H30.187l-2.052,3.75H25.094z M31.478,350.164h8.55
			l-4.294-7.693L31.478,350.164z"/>
		<path d="M53.255,356.227v-16.125h13.594c2.354,0,3.531,1.055,3.531,3.164v1.869c0,1.627-0.931,2.555-2.792,2.783
			c1.945,0.203,2.917,1.24,2.917,3.111v2.049c0,2.1-1.558,3.148-4.673,3.148H53.255z M67.349,345.326v-1.536
			c0-0.896-0.57-1.345-1.711-1.345h-9.352v4.188h9.352c0.634,0,1.077-0.083,1.331-0.25
			C67.222,346.217,67.349,345.865,67.349,345.326z M56.286,348.977v4.906h9.361c0.685,0,1.16-0.133,1.427-0.399s0.4-0.741,0.4-1.427
			v-1.254c0-1.217-0.609-1.826-1.827-1.826H56.286z"/>
		<path d="M92.887,342.508h-11.25v11.312h11.25v-3.838l3.031,0.57v1.9c0,1.463-0.279,2.457-0.835,2.984
			c-0.557,0.525-1.594,0.789-3.113,0.789h-9.454c-1.544,0-2.582-0.26-3.113-0.779c-0.532-0.52-0.797-1.527-0.797-3.023v-8.48
			c0-1.496,0.272-2.511,0.816-3.043s1.576-0.799,3.095-0.799h9.454c1.519,0,2.556,0.268,3.113,0.803
			c0.557,0.534,0.835,1.551,0.835,3.047v1.521l-3.031,0.494V342.508z"/>
		<path d="M114.616,340.102c2.988,0,5.14,0.418,6.457,1.255c2.329,1.471,3.494,3.728,3.494,6.77c0,5.4-3.317,8.101-9.951,8.101
			h-9.268v-16.125H114.616z M114.273,342.508h-5.894v11.312h5.894c2.535,0,4.379-0.419,5.533-1.257s1.73-2.323,1.73-4.456
			c0-2.057-0.608-3.518-1.825-4.381C118.595,342.914,116.783,342.508,114.273,342.508z"/>
		<path d="M133.51,356.227v-16.125h16.226v2.406h-13.195v4.125h7.951v2.406h-7.951v4.844h13.347v2.344H133.51z"/>
		<path d="M157.297,356.227v-16.125h16.036v2.406h-13.004v5h7.343v2.344h-7.343v6.375H157.297z"/>
		<path d="M195.048,342.508h-12.75v11.312h12.75v-4.375h-6.574v-2.219h9.605v5.203c0,1.469-0.279,2.469-0.836,3
			s-1.596,0.797-3.116,0.797h-10.907c-1.546,0-2.591-0.266-3.136-0.799c-0.545-0.531-0.817-1.533-0.817-3.004v-8.48
			c0-1.471,0.278-2.479,0.836-3.023s1.596-0.818,3.117-0.818h10.907c1.444,0,2.464,0.262,3.06,0.783
			c0.595,0.521,0.893,1.469,0.893,2.839v0.456l-3.031,0.531V342.508z"/>
		<path d="M206.507,356.227v-16.062h3.031v6.438h12.844v-6.438h3.031v16.062h-3.031v-7.188h-12.844v7.188H206.507z"/>
		<path d="M237.557,356.227h-3.031v-16.062h3.031V356.227z"/>
		<path d="M249.678,356.227c-1.52,0-2.558-0.257-3.115-0.771c-0.557-0.514-0.835-1.515-0.835-3.003v-3.117l3.031-0.607v5.092h8.562
			v-13.719h3.031v12.322c0,1.471-0.278,2.473-0.836,3.004c-0.558,0.533-1.595,0.799-3.114,0.799H249.678z"/>
		<path d="M269.548,356.227v-16.125h3.031v6.93l10.19-6.93h4.221l-11.895,7.797l13.225,8.328h-4.981l-10.76-7.221v7.221H269.548z"/>
		<path d="M294.209,356.227v-16.125h3.031v13.688h12.549v2.438H294.209z"/>
		<path d="M318.687,343.105l0.062,2.244v10.877h-2.5v-16.125h2.509l8.021,10.459l7.376-10.459h2.812v16.125h-2.812V345.35
			c0-0.785,0.062-1.533,0.188-2.244c-0.354,1.014-0.71,1.762-1.063,2.242l-6.195,8.322h-0.797l-6.422-8.246
			C319.383,344.816,318.99,344.043,318.687,343.105z"/>
	</g>
	<g>
		<path d="M30.312,381.334c0.146,0.938,0.219,1.902,0.219,2.891v10.002h-2.812v-16.125h2.321l11.833,10.535
			c0.735,0.658,1.382,1.395,1.94,2.205c-0.188-0.963-0.281-1.965-0.281-3.004v-9.736h2.812v16.125h-2.089l-12.042-10.688
			C31.401,382.83,30.768,382.095,30.312,381.334z"/>
		<path d="M55.122,381.943c0-1.471,0.278-2.479,0.836-3.023c0.557-0.545,1.596-0.818,3.116-0.818h11.628
			c1.52,0,2.558,0.273,3.116,0.818c0.557,0.545,0.836,1.553,0.836,3.023v8.48c0,1.471-0.279,2.473-0.836,3.004
			c-0.558,0.533-1.596,0.799-3.116,0.799H59.073c-1.545,0-2.59-0.26-3.135-0.779c-0.545-0.52-0.817-1.527-0.817-3.023V381.943z
			 M58.153,391.82h13.469v-11.312H58.153V391.82z"/>
		<path d="M83.426,394.227v-16.125H97.02c2.354,0,3.531,1.039,3.531,3.119v3.613c0,2.053-1.178,3.08-3.533,3.08H86.457v6.312H83.426
			z M95.663,380.445h-9.206v5.125h9.206c1.217,0,1.826-0.51,1.826-1.529v-2.066C97.488,380.955,96.879,380.445,95.663,380.445z"/>
		<path d="M107.789,381.943c0-1.471,0.278-2.479,0.836-3.023c0.557-0.545,1.596-0.818,3.116-0.818h11.628
			c1.52,0,2.558,0.273,3.116,0.818c0.557,0.545,0.836,1.553,0.836,3.023v8.48c0,1.471-0.279,2.473-0.836,3.004
			c-0.558,0.533-1.596,0.799-3.116,0.799h-1.596l2.28,4.719h-2.698l-2.09-4.719h-7.524c-1.545,0-2.59-0.26-3.135-0.779
			c-0.545-0.52-0.817-1.527-0.817-3.023V381.943z M120.636,391.789l3.653,0.031v-11.312H110.82v11.281h7.38l-2.014-4.521l1.9-0.799
			L120.636,391.789z"/>
		<path d="M136.093,394.227v-16.125h12.986c2.259,0,3.389,1.039,3.389,3.119v3.613c0,2.053-1.13,3.08-3.389,3.08h-2.133l7.106,6.312
			h-4.066l-6.436-6.312h-4.426v6.312H136.093z M147.724,380.445h-8.6v5.219h8.6c0.812,0,1.319-0.19,1.522-0.571
			c0.127-0.229,0.19-0.584,0.19-1.067v-1.941C149.437,380.992,148.866,380.445,147.724,380.445z"/>
		<path d="M175.315,380.508h-11.281v4.188h10.313c1.517,0,2.546,0.266,3.09,0.797c0.543,0.532,0.815,1.532,0.815,3v1.938
			c0,1.469-0.271,2.469-0.812,3s-1.569,0.797-3.085,0.797h-9.804c-1.546,0-2.591-0.264-3.135-0.789
			c-0.545-0.527-0.817-1.521-0.817-2.984v-0.457l2.774-0.57v2.395h12.16v-4.531h-10.369c-1.52,0-2.551-0.267-3.096-0.801
			c-0.544-0.533-0.816-1.537-0.816-3.012v-1.524c0-1.499,0.272-2.517,0.816-3.05s1.575-0.801,3.093-0.801h8.957
			c1.442,0,2.46,0.255,3.055,0.764c0.595,0.51,0.892,1.438,0.892,2.782v0.38l-2.75,0.608V380.508z"/>
		<path d="M194.762,380.508v13.719h-3.031v-13.719h-7.594v-2.406h18.278v2.406H194.762z"/>
		<path d="M211.703,378.102v13.719h11.781v-13.719h3.094v12.322c0,1.471-0.272,2.473-0.817,3.004
			c-0.545,0.533-1.591,0.799-3.136,0.799h-10c-1.52,0-2.559-0.266-3.117-0.799c-0.557-0.531-0.836-1.533-0.836-3.004v-12.322
			H211.703z"/>
		<path d="M242.125,394.227l-9.272-16.125h3.269l7.22,12.971l6.916-12.971h3.002l-8.815,16.125H242.125z"/>
		<path d="M262.905,394.227l-6.233-16.125h3.154l4.447,12.325l4.751-12.325h2.015l4.637,12.325l4.447-12.325h2.736l-6.157,16.125
			h-2.243l-4.522-12.008l-4.751,12.008H262.905z"/>
		<path d="M286.725,394.227l8.083-8.252l-8.208-7.873h4.104l5.814,5.865l5.32-5.865h3.762l-7.41,7.492l9.066,8.633h-4.258
			l-6.502-6.536l-5.855,6.536H286.725z"/>
		<path d="M318.937,394.227v-7.035l-8.406-9.09h3.687l6.422,7.005l6.117-7.005h3.572l-8.36,9.09v7.035H318.937z"/>
		<path d="M335.609,394.227v-1.443l12.16-12.275h-11.059v-2.406h15.898v1.293l-12.287,12.395h12.287v2.438H335.609z"/>
	</g>
	<g>
		<path fill="#FFFFFF" d="M107.188,417.266c0-1.797,0.291-3.02,0.874-3.664c0.583-0.646,1.698-0.969,3.345-0.969h12.468
			c1.622,0,2.73,0.322,3.326,0.969c0.596,0.645,0.894,1.867,0.894,3.664v10.328c0,1.798-0.298,3.02-0.894,3.664
			c-0.596,0.646-1.704,0.969-3.326,0.969h-12.468c-1.647,0-2.762-0.322-3.345-0.969c-0.583-0.645-0.874-1.866-0.874-3.664V417.266z
			 M110.344,429.539h14.594v-14.281h-14.594V429.539z"/>
		<path fill="#FFFFFF" d="M140.379,432.227v-16.529h-4.25v-1.971l7.25-1.25v19.75H140.379z"/>
		<path fill="#FFFFFF" d="M156.414,416.469c0-1.52,0.297-2.538,0.892-3.057c0.595-0.52,1.702-0.779,3.321-0.779h9.45
			c1.619,0,2.726,0.26,3.32,0.779s0.892,1.538,0.892,3.058v1.216c0,1.039-0.165,1.817-0.493,2.336
			c-0.329,0.52-0.973,1.07-1.934,1.653l-12.666,7.864h12.874l-0.016-3.73l3.141,1.025v1.557c0,1.52-0.306,2.539-0.917,3.058
			s-1.731,0.778-3.36,0.778H155.49v-1.215c0-0.759,0.101-1.328,0.304-1.708c0.304-0.607,0.962-1.228,1.976-1.86l13.3-8.352v-3.834
			h-11.531v4.59l-3.125-0.836V416.469z"/>
	</g>
	<g>
		<path fill="#FFFFFF" d="M188.933,432.227c-1.621,0-2.729-0.258-3.324-0.775s-0.893-1.535-0.893-3.052v-1.597l3.125-0.721v3.457
			h11.315c0.836,0,1.342-0.164,1.52-0.494c0.151-0.253,0.228-0.671,0.228-1.254v-2.622c0-0.583-0.075-1.001-0.228-1.254
			c-0.201-0.354-0.707-0.532-1.518-0.532h-6.954v-2.5h6.232c0.785,0,1.292-0.203,1.521-0.607c0.151-0.254,0.228-0.799,0.228-1.635
			V417.5c0-0.836-0.076-1.393-0.228-1.672c-0.253-0.38-0.76-0.57-1.518-0.57h-10.473v3.04l-2.969-0.608v-1.216
			c0-1.521,0.297-2.541,0.892-3.062c0.595-0.52,1.702-0.779,3.322-0.779h9.947c1.619,0,2.727,0.26,3.322,0.779
			c0.594,0.52,0.892,1.539,0.892,3.059v1.787c0,1.114-0.222,1.95-0.664,2.508s-1.208,0.963-2.296,1.216
			c2.452,0.354,3.679,1.683,3.679,3.984v2.049c0,1.568-0.304,2.644-0.911,3.226c-0.659,0.658-1.85,0.986-3.572,0.986H188.933z"/>
		<path fill="#FFFFFF" d="M227.732,432.227v-4.688h-14.844v-2.438l14.123-12.719h3.721v12.719h4.5v2.438h-4.5v4.688H227.732z
			 M227.732,425.102v-10.355l-11.387,10.375L227.732,425.102z"/>
		<path fill="#FFFFFF" d="M243.867,428.473c3.623,0.836,6.93,1.254,9.918,1.254c2.331,0,4.021-0.291,5.073-0.875
			c1.052-0.583,1.577-1.572,1.577-2.967c0-1.42-0.545-2.447-1.634-3.082c-1.089-0.634-2.837-0.951-5.244-0.951
			c-2.913,0-6.13,0.405-9.651,1.216l1.025-10.435h15.889l-0.229,2.625h-13.186l-0.685,4.734c2.432-0.531,4.851-0.797,7.258-0.797
			c6.554,0,9.831,2.246,9.831,6.736c0,2.385-0.842,4.072-2.523,5.061c-1.683,0.99-4.373,1.484-8.071,1.484
			c-2.331,0-5.13-0.279-8.397-0.84L243.867,428.473z"/>
		<path fill="#FFFFFF" d="M289.126,414.789c-0.305-0.021-0.71-0.031-1.217-0.031c-7.581,0-11.65,1.934-12.208,5.8
			c2.814-0.554,5.717-0.831,8.709-0.831c2.967,0,5.033,0.355,6.199,1.064s1.749,2.039,1.749,3.988v2.66
			c0,3.191-2.104,4.787-6.313,4.787h-7.796c-2.308,0-3.892-0.424-4.754-1.272s-1.293-2.437-1.293-4.767v-2.584
			c0-3.672,1.185-6.501,3.556-8.488c2.371-1.988,5.711-2.982,10.021-2.982c0.329,0,0.773,0.021,1.331,0.062L289.126,414.789z
			 M275.379,422.98c-0.076,0.482-0.114,0.875-0.114,1.18c0,2.562,0.196,4.109,0.591,4.643c0.393,0.533,1.58,0.799,3.561,0.799h5.979
			c1.497,0,2.506-0.203,3.027-0.609c0.52-0.405,0.78-1.217,0.78-2.435v-1.256c0-1.192-0.317-1.997-0.952-2.416
			s-1.865-0.628-3.693-0.628C281.205,422.258,278.146,422.499,275.379,422.98z"/>
		<path fill="#FFFFFF" d="M307.664,432.57l11.361-17.312H304.75v4.58l-2.938-0.568v-6.637h20.443v2.545l-10.792,17.393H307.664z"/>
		<path fill="#FFFFFF" d="M334.719,432.227c-1.723,0-2.914-0.328-3.572-0.986c-0.608-0.582-0.912-1.658-0.912-3.227v-2.05
			c0-2.252,1.19-3.556,3.572-3.909c-2.111-0.279-3.166-1.545-3.166-3.799v-1.786c0-1.52,0.298-2.538,0.895-3.058
			c0.596-0.52,1.705-0.779,3.329-0.779h11.49c1.624,0,2.733,0.26,3.329,0.779s0.895,1.538,0.895,3.058v1.786
			c0,2.229-1.068,3.494-3.204,3.799c2.407,0.354,3.61,1.657,3.61,3.909v2.05c0,1.543-0.323,2.631-0.969,3.264
			c-0.646,0.633-1.831,0.949-3.554,0.949H334.719z M333.391,425.428v2.129c0,0.811,0.133,1.35,0.398,1.615s0.792,0.398,1.577,0.398
			h10.486c0.785,0,1.311-0.133,1.577-0.398c0.266-0.266,0.398-0.805,0.398-1.615v-2.129c0-0.811-0.133-1.349-0.398-1.615
			c-0.267-0.266-0.792-0.398-1.577-0.398h-10.486c-0.785,0-1.312,0.14-1.577,0.418C333.523,424.111,333.391,424.643,333.391,425.428
			z M333.766,417.311v1.52c0,0.786,0.127,1.324,0.38,1.615c0.253,0.292,0.786,0.438,1.597,0.438h9.734
			c0.811,0,1.343-0.139,1.596-0.418c0.254-0.278,0.381-0.823,0.381-1.635v-1.52c0-0.785-0.127-1.324-0.381-1.615
			c-0.253-0.291-0.785-0.438-1.596-0.438h-9.734c-0.811,0-1.344,0.146-1.597,0.438S333.766,416.525,333.766,417.311z"/>
		<path fill="#FFFFFF" d="M362.795,430.039c0.609,0.042,1.002,0.062,1.18,0.062c7.605,0,11.688-1.943,12.246-5.831
			c-2.814,0.554-5.73,0.831-8.748,0.831c-2.941,0-4.994-0.359-6.16-1.08c-1.166-0.72-1.75-2.053-1.75-3.998v-2.615
			c0-3.184,2.104-4.775,6.313-4.775h7.759c2.307,0,3.897,0.424,4.772,1.271c0.874,0.848,1.312,2.437,1.312,4.765v2.581
			c0,3.67-1.186,6.48-3.556,8.429s-5.711,2.923-10.021,2.923c-0.609,0-1.053-0.011-1.332-0.031L362.795,430.039z M376.48,421.851
			c0.076-0.505,0.113-0.909,0.113-1.212c0-2.552-0.189-4.086-0.569-4.604s-1.558-0.777-3.534-0.777h-5.965
			c-1.494,0-2.508,0.202-3.039,0.606c-0.533,0.404-0.799,1.212-0.799,2.425v1.25c0,1.188,0.316,1.989,0.95,2.406
			s1.862,0.625,3.686,0.625C370.667,422.57,373.719,422.33,376.48,421.851z"/>
	</g>
	<g>
		<path fill="#FFFFFF" d="M269.883,199.607l45.318-78.5h13.504l46.428,78.5h-16.092l-10.174-18.375H294.67l-9.988,18.375H269.883z
			 M300.963,169.982h41.625l-20.904-37.346L300.963,169.982z"/>
	</g>
	<g>
		<path d="M28.238,139.773l12.412-22.719h4.049l12.632,22.719H53.15l-2.905-5.594H34.884l-2.905,5.594H28.238z M36.466,131.273
			h12.232l-6.116-11.607L36.466,131.273z"/>
		<path d="M61.697,139.773l10.778-18.656h3.211l11.042,18.656h-3.827l-2.419-4.344h-12.89l-2.375,4.344H61.697z M69.089,132.742h9.9
			l-4.972-8.896L69.089,132.742z"/>
	</g>
	<g>
		<path d="M26.856,198.773l12.845-22.719h5.103l13.021,22.719h-5.938l-2.728-4.969H34.774l-2.639,4.969H26.856z M37.02,189.711
			h9.944l-4.884-9.242L37.02,189.711z"/>
		<path d="M62.339,198.773l11.046-18.625h4.357l11.222,18.625h-5.105l-2.333-4.094H69.205l-2.333,4.094H62.339z M71.14,191.305
			h8.536l-4.356-7.756L71.14,191.305z"/>
	</g>
	<g>
		<path d="M109.649,139.773v-24.781h23.856v3.312h-19.731v6.938h12.051v3.25h-12.051v7.875h19.923v3.406H109.649z"/>
		<path d="M143.611,139.773V119.43h20.496v3.031h-16.652v5.219h10.028v3.031h-10.028v6.094h16.844v2.969H143.611z"/>
	</g>
	<g>
		<path d="M107.709,198.773v-24.781h25.344v4.219h-19.594v5.531h11.434v4.219h-11.434v6.156h19.834v4.656H107.709z"/>
		<path d="M143.929,198.773v-20.312h21.792v3.594h-16.792v4.438h9.784v3.5h-9.784v5h17.032v3.781H143.929z"/>
	</g>
	<g>
		<path d="M188.998,139.773v-24.781h19.958c1.824,0,3.15,0.377,3.982,1.129s1.248,1.977,1.248,3.673v5.521
			c0,1.696-0.416,2.921-1.248,3.673c-0.832,0.753-2.158,1.129-3.982,1.129h-3.646l11.328,9.656h-6.144l-10.078-9.656h-7.293v9.656
			H188.998z M207.312,118.211h-14.19v8.688h14.19c0.99,0,1.686-0.176,2.086-0.527c0.398-0.353,0.6-1.024,0.6-2.017v-3.6
			c0-0.96-0.201-1.624-0.6-1.991C208.998,118.395,208.303,118.211,207.312,118.211z"/>
		<path d="M225.6,139.773V119.43h16.381c2.85,0,4.275,1.311,4.275,3.934v4.557c0,2.59-1.426,3.885-4.275,3.885h-2.69l8.976,7.969
			h-5.135l-8.115-7.969h-5.572v7.969H225.6z M240.311,122.398h-10.867v6.562h10.867c1.025,0,1.666-0.239,1.924-0.719
			c0.16-0.287,0.24-0.734,0.24-1.341v-2.443C242.475,123.085,241.752,122.398,240.311,122.398z"/>
	</g>
	<g>
		<path d="M187.028,198.773v-24.781h21.214c3.711,0,5.567,1.6,5.567,4.799v5.809c0,3.199-1.856,4.799-5.567,4.799h-3.264
			l11.424,9.375h-8.256l-9.987-9.375h-5.475v9.375H187.028z M205.653,178.273h-12.969v6.906h12.969c0.896,0,1.521-0.096,1.873-0.287
			c0.48-0.288,0.721-0.848,0.721-1.68v-2.973c0-0.832-0.24-1.391-0.721-1.68C207.174,178.369,206.55,178.273,205.653,178.273z"/>
		<path d="M225.552,198.773v-20.312h18.281c3.167,0,4.75,1.312,4.75,3.937v4.8c0,2.593-1.583,3.889-4.75,3.889h-2.783l9.647,7.688
			h-7.104l-8.486-7.688h-4.649v7.688H225.552z M241.734,181.961h-11.276v5.625h11.276c1.503,0,2.255-0.545,2.255-1.635v-2.355
			C243.989,182.506,243.237,181.961,241.734,181.961z"/>
	</g>
	<g>
		<path fill="#5D605A" d="M106.75,253.99c0-3.07,0.575-5.138,1.728-6.204c1.151-1.065,3.305-1.599,6.461-1.599h24.311
			c3.155,0,5.309,0.533,6.461,1.599c1.151,1.066,1.728,3.134,1.728,6.204v17.395c0,3.07-0.576,5.139-1.728,6.204
			c-1.152,1.066-3.306,1.599-6.461,1.599l-3.583-0.002l4.148,8.377h-7.61l-3.71-8.375h-13.558c-3.156,0-5.31-0.532-6.46-1.599
			c-1.151-1.065-1.727-3.134-1.727-6.204V253.99z M114.438,273h11.312l-3.072-7.168l5.565-2.24l4.475,9.408h7.032v-20.938h-25.312
			V273z"/>
		<path fill="#5D605A" d="M171.21,252.125v22h18.875v-22h6.688v20.665c0,2.517-0.503,4.212-1.507,5.086
			c-1.005,0.875-2.875,1.312-5.61,1.312h-17.954c-2.736,0-4.597-0.437-5.579-1.312c-0.983-0.874-1.475-2.569-1.475-5.086v-20.665
			H171.21z"/>
		<path fill="#5D605A" d="M208.074,279.188l16.076-27.062h6.341l16.333,27.062h-7.43L236,273.25h-17.934l-3.396,5.938H208.074z
			 M220.874,268.312h12.416l-6.336-11.269L220.874,268.312z"/>
		<path fill="#5D605A" d="M256.999,279.188v-27.062h24.408c4.228,0,6.342,1.748,6.342,5.242v6.393c0,3.452-2.114,5.178-6.342,5.178
			h-3.716l12.863,10.25h-9.472l-11.354-10.25h-6.229v10.25H256.999z M278.604,256.812h-15.104v7.438h15.104
			c2.014,0,3.021-0.72,3.021-2.161v-3.115C281.624,257.533,280.617,256.812,278.604,256.812z"/>
		<path fill="#5D605A" d="M318.18,257v22.188h-6.562V257h-13.062v-4.875h32.768V257H318.18z"/>
		<path fill="#5D605A" d="M341.707,279.188v-2.941L361.547,257h-17.855v-4.875h28.516v2.686l-20.195,19.377h20.195v5H341.707z"/>
	</g>
</g>
</svg>
